<svg preserveAspectRatio="none" overflow="visible" style="display: block;" width="15" height="15" viewBox="0 0 15 15" fill="none" xmlns="http://www.w3.org/2000/svg">
<g id="Icon">
<path id="Vector" d="M9.1875 3.9375C9.07298 4.05433 9.00884 4.2114 9.00884 4.375C9.00884 4.5386 9.07298 4.69567 9.1875 4.8125L10.1875 5.8125C10.3043 5.92702 10.4614 5.99116 10.625 5.99116C10.7886 5.99116 10.9457 5.92702 11.0625 5.8125L13.4187 3.45625C13.733 4.15074 13.8282 4.92452 13.6915 5.67447C13.5549 6.42441 13.1929 7.1149 12.6539 7.65392C12.1149 8.19295 11.4244 8.55489 10.6745 8.69154C9.92452 8.82818 9.15074 8.73302 8.45625 8.41875L4.1375 12.7375C3.88886 12.9861 3.55163 13.1258 3.2 13.1258C2.84837 13.1258 2.51114 12.9861 2.2625 12.7375C2.01386 12.4889 1.87417 12.1516 1.87417 11.8C1.87417 11.4484 2.01386 11.1111 2.2625 10.8625L6.58125 6.54375C6.26698 5.84926 6.17182 5.07548 6.30846 4.32553C6.44511 3.57559 6.80705 2.8851 7.34608 2.34608C7.8851 1.80705 8.57559 1.44511 9.32553 1.30846C10.0755 1.17182 10.8493 1.26698 11.5437 1.58125L9.19375 3.93125L9.1875 3.9375Z" stroke="#1A1A1A" stroke-width="1.125" stroke-linecap="round" stroke-linejoin="round"/>
</g>
</svg>
