<svg preserveAspectRatio="none" overflow="visible" style="display: block;" width="15" height="15" viewBox="0 0 15 15" fill="none" xmlns="http://www.w3.org/2000/svg">
<g id="Facebook Pages &#194;&#183; SVG" clip-path="url(#clip0_0_25)">
<path id="Vector" d="M5.68812 14.8069V9.81938H4.14187V7.5275H5.68812V6.54C5.68812 3.98688 6.84312 2.80375 9.34937 2.80375C9.6 2.80375 9.94625 2.83 10.2669 2.86813C10.507 2.89284 10.7453 2.93355 10.98 2.99V5.06813C10.8443 5.05547 10.7082 5.04796 10.5719 5.04563C10.4192 5.04166 10.2665 5.03979 10.1137 5.04C9.67187 5.04 9.32687 5.1 9.06687 5.23313C8.89208 5.32082 8.74515 5.45542 8.6425 5.62188C8.48125 5.88438 8.40875 6.24375 8.40875 6.71688V7.5275H10.8581L10.6169 8.84188L10.4375 9.81938H8.40875V14.9725C12.1225 14.5237 15 11.3619 15 7.5275C15 3.38563 11.6419 0.0275 7.5 0.0275C3.35813 0.0275 0 3.38563 0 7.5275C0 11.045 2.42125 13.9962 5.68812 14.8069Z" fill="#1877F2"/>
</g>
<defs>
<clipPath id="clip0_0_25">
<rect width="15" height="15" fill="white"/>
</clipPath>
</defs>
</svg>
